<svg id="Layer_1" data-name="Layer 1" xmlns="http://www.w3.org/2000/svg" xmlns:xlink="http://www.w3.org/1999/xlink" width="382.75" height="417.38" viewBox="0 0 382.75 417.38"><defs><style>.cls-1{font-size:16px;font-family:BarlowSemiCondensed-Regular, Barlow Semi Condensed;}.cls-2{letter-spacing:-0.06em;}.cls-3{letter-spacing:0em;}.cls-4{letter-spacing:-0.03em;}.cls-5{letter-spacing:0em;}.cls-6{letter-spacing:0em;}.cls-7{letter-spacing:-0.01em;}.cls-8{letter-spacing:0em;}.cls-9{fill:none;stroke:#92dda1;stroke-miterlimit:10;stroke-width:9px;}.cls-10{fill:url(#linear-gradient);}.cls-11{letter-spacing:-0.04em;}.cls-12{letter-spacing:0em;}.cls-13{letter-spacing:-0.01em;}.cls-14{letter-spacing:0.02em;}.cls-15{fill:#92dda1;}.cls-16{letter-spacing:-0.01em;}.cls-17{letter-spacing:0em;}.cls-18{letter-spacing:-0.01em;}.cls-19{letter-spacing:0em;}</style><linearGradient id="linear-gradient" x1="7.86" y1="55.43" x2="184.7" y2="184.91" gradientUnits="userSpaceOnUse"><stop offset="0" stop-color="#50b5e6"/><stop offset="0.55" stop-color="#43a3e0"/><stop offset="0.99" stop-color="#549dcf"/></linearGradient></defs><title>Artboard 1</title><text class="cls-1" transform="translate(8.49 22.86)"><tspan class="cls-2">V</tspan><tspan class="cls-3" x="7.22" y="0">A</tspan><tspan x="15.78" y="0">MTIGER Node </tspan><tspan class="cls-4" x="101.12" y="0">T</tspan><tspan class="cls-5" x="108.54" y="0">ypescri</tspan><tspan class="cls-6" x="153.57" y="0">p</tspan><tspan x="161.34" y="0">t P</tspan><tspan class="cls-7" x="177.85" y="0">r</tspan><tspan x="183.02" y="0">oje</tspan><tspan class="cls-8" x="201.65" y="0">c</tspan><tspan class="cls-5" x="209.01" y="0">t</tspan></text><text class="cls-1" transform="translate(245.98 68.86)">Git</text><text class="cls-1" transform="translate(330.73 94.23)">Sou<tspan class="cls-7" x="23.46" y="0">r</tspan><tspan class="cls-8" x="28.62" y="0">c</tspan><tspan class="cls-5" x="35.98" y="0">e</tspan></text><line class="cls-9" x1="189.49" y1="90.12" x2="253.99" y2="89.62"/><line class="cls-9" x1="254.49" y1="89.12" x2="310.99" y2="89.12"/><path class="cls-10" d="M185.49,61.12h-93v-7a5,5,0,0,0-5-5h-74a5,5,0,0,0-5,5v124a8,8,0,0,0,8,8h169a8,8,0,0,0,8-8v-109A8,8,0,0,0,185.49,61.12Z"/><text class="cls-1" transform="translate(45.66 128.73)"><tspan class="cls-11">W</tspan><tspan class="cls-12" x="11.28" y="0">orking Di</tspan><tspan class="cls-7" x="65.79" y="0">r</tspan><tspan x="70.96" y="0">e</tspan><tspan class="cls-8" x="78.5" y="0">c</tspan><tspan class="cls-13" x="85.86" y="0">t</tspan><tspan x="90.78" y="0">o</tspan><tspan class="cls-14" x="98.46" y="0">r</tspan><tspan class="cls-5" x="104.05" y="0">y</tspan></text><circle class="cls-15" cx="254.49" cy="89.12" r="13"/><circle class="cls-15" cx="310.49" cy="89.12" r="13"/><text class="cls-1" transform="translate(330.73 144.73)">Mas<tspan class="cls-16" x="24.06" y="0">t</tspan><tspan class="cls-5" x="28.99" y="0">er</tspan></text><line class="cls-9" x1="254.49" y1="139.62" x2="310.99" y2="139.62"/><line class="cls-9" x1="140.49" y1="237.62" x2="196.99" y2="237.62"/><circle class="cls-15" cx="310.49" cy="139.62" r="13"/><line class="cls-9" x1="254.49" y1="90.12" x2="254.49" y2="141.62"/><line class="cls-9" x1="140.99" y1="186.12" x2="140.99" y2="237.62"/><line class="cls-9" x1="140.99" y1="238.12" x2="140.99" y2="289.62"/><circle class="cls-15" cx="254.49" cy="142.12" r="13"/><circle class="cls-15" cx="140.99" cy="237.12" r="13"/><circle class="cls-15" cx="197.49" cy="237.12" r="13"/><line class="cls-9" x1="140.49" y1="290.62" x2="196.99" y2="290.62"/><circle class="cls-15" cx="140.99" cy="290.12" r="13"/><circle class="cls-15" cx="197.49" cy="290.12" r="13"/><text class="cls-1" transform="translate(39.73 242.23)">pac<tspan class="cls-17" x="22.56" y="0">k</tspan><tspan class="cls-5" x="29.74" y="0">ag</tspan><tspan class="cls-18" x="44.7" y="0">e</tspan><tspan class="cls-5" x="52.02" y="0">.json</tspan></text><text class="cls-1" transform="translate(215.73 242.23)">main: build</text><text class="cls-1" transform="translate(215.73 295.23)">types: build/ind<tspan class="cls-13" x="95.73" y="0">e</tspan><tspan class="cls-12" x="103.15" y="0">x</tspan><tspan class="cls-18" x="109.97" y="0">.</tspan><tspan class="cls-13" x="113.6" y="0">d.</tspan><tspan x="124.94" y="0">ts</tspan></text><text class="cls-1" transform="translate(215.73 349.23)">scri<tspan class="cls-19" x="23.06" y="0">p</tspan><tspan class="cls-5" x="30.83" y="0">ts: build | </tspan><tspan class="cls-8" x="89.2" y="0">c</tspan><tspan x="96.56" y="0">ommit</tspan></text><line class="cls-9" x1="140.99" y1="292.12" x2="140.99" y2="343.62"/><line class="cls-9" x1="140.49" y1="344.62" x2="196.99" y2="344.62"/><circle class="cls-15" cx="140.99" cy="344.12" r="13"/><circle class="cls-15" cx="197.99" cy="344.12" r="13"/><text class="cls-1" transform="translate(215.73 400.23)">dependencies</text><line class="cls-9" x1="140.99" y1="343.12" x2="140.99" y2="394.62"/><line class="cls-9" x1="140.49" y1="395.62" x2="196.99" y2="395.62"/><circle class="cls-15" cx="140.99" cy="395.12" r="13"/><circle class="cls-15" cx="197.99" cy="395.12" r="13"/></svg>